<svg width="83" height="138.19" fill="none" version="1.1" viewBox="0 0 83 138.19" xmlns="http://www.w3.org/2000/svg">
 <g transform="translate(-23 .00017223)">
  <g fill="#fff">
   <path d="m47.374 137.97c-0.4635 0-0.8607-0.398-0.8607-0.861v-11.087c0-0.464 0.3972-0.861 0.8607-0.861 0.4634 0 0.8606 0.397 0.8606 0.861v11.087c0 0.463-0.3972 0.861-0.8606 0.861z"/>
   <path d="m56.378 137.94c-0.4635 0-0.8607-0.398-0.8607-0.861v-6.851c0-0.463 0.3972-0.86 0.8607-0.86 0.4634 0 0.8607 0.397 0.8607 0.86v6.851c0 0.497-0.3642 0.861-0.8607 0.861z"/>
   <path d="m79.35 137.97c-0.1324 0-0.2317-0.033-0.3642-0.067-0.4303-0.198-0.6289-0.728-0.3972-1.158l5.2303-11.153c0.1986-0.431 0.7283-0.629 1.1586-0.398 0.4304 0.232 0.629 0.729 0.3973 1.159l-5.2303 11.153c-0.1656 0.298-0.4635 0.464-0.7945 0.464z"/>
   <path d="m56.377 131.09c-0.4634 0-0.8606-0.397-0.8606-0.86 0-2.118-1.3573-3.575-3.3435-3.575-0.331 0-0.9269 0.166-1.2579 0.364-0.4303 0.232-0.9269 0.067-1.1586-0.364-0.2317-0.43-0.0662-0.926 0.3641-1.158 0.5297-0.265 1.3904-0.563 2.0855-0.563 2.88 0 5.0648 2.284 5.0648 5.296-0.0331 0.463-0.3972 0.86-0.8938 0.86z"/>
   <path d="m71.571 130.86c-0.4965 0-0.7944-0.232-0.8937-0.629-0.5959-2.085-2.5159-3.541-4.6676-3.541-0.4635 0-0.8607-0.397-0.8607-0.861 0-0.463 0.3972-0.86 0.8607-0.86 2.9131 0 5.5282 1.953 6.3227 4.799 0.1324 0.43-0.2317 1.092-0.7614 1.092z"/>
   <path d="m60.482 130.86c-0.6951 0-0.96-0.629-0.8276-1.092 0.7945-2.813 3.4097-4.799 6.3228-4.799 0.4634 0 0.8607 0.397 0.8607 0.86 0 0.464-0.3973 0.861-0.8607 0.861-2.1517 0-4.0717 1.456-4.6676 3.541-0.0993 0.364-0.4303 0.629-0.8276 0.629z"/>
   <path d="m104.28 120.13c-0.96 0-1.722 0.761-1.722 1.721s0.762 1.721 1.722 1.721 1.721-0.761 1.721-1.721-0.761-1.721-1.721-1.721z"/>
   <path d="m104.28 137.94c-0.464 0-0.861-0.397-0.861-0.861v-11.087c0-0.463 0.397-0.86 0.861-0.86 0.463 0 0.86 0.397 0.86 0.86v11.087c0 0.464-0.397 0.861-0.86 0.861z"/>
   <path d="m79.316 137.97c-0.331 0-0.629-0.199-0.7945-0.497l-5.2303-11.12c-0.1986-0.43-0.0331-0.96 0.3973-1.158 0.4303-0.199 0.9599-0.033 1.1586 0.397l5.2303 11.12c0.1986 0.43 0.0331 0.96-0.3973 1.159-0.0993 0.066-0.2317 0.099-0.3641 0.099z"/>
   <path d="m100.11 138.07c-1.3908-0.695-2.7149-2.349-2.7149-4.931 0-0.463 0.3973-0.86 0.8607-0.86 0.4635 0 0.8607 0.397 0.8607 0.86 0 1.556 0.662 2.879 1.8205 3.409 0.431 0.199 0.662 0.728 0.397 1.225-0.198 0.264-0.629 0.595-1.224 0.297z"/>
   <path d="m43.303 132.45h-8.7393c-0.4634 0-0.8607-0.398-0.8607-0.861s0.3973-0.86 0.8607-0.86h8.7393c0.4634 0 0.8607 0.397 0.8607 0.86s-0.3973 0.861-0.8607 0.861z"/>
   <path d="m43.3 132.44c-0.4634 0-0.8607-0.398-0.8607-0.861 0-2.747-2.1848-4.898-4.9986-4.898-0.4634 0-0.8606-0.397-0.8606-0.861 0-0.463 0.3972-0.86 0.8606-0.86 3.7738 0 6.72 2.912 6.72 6.619 0 0.463-0.3972 0.861-0.8607 0.861z"/>
   <path d="m31.782 132.44c-0.4635 0-0.8607-0.398-0.8607-0.861 0-3.64 2.9462-6.619 6.5213-6.619 0.4635 0 0.8607 0.397 0.8607 0.86 0 0.464-0.3972 0.861-0.8607 0.861-2.6151 0-4.7999 2.25-4.7999 4.898 0 0.463-0.3973 0.861-0.8607 0.861z"/>
   <path d="m37.442 138.17c-3.6082 0-6.5213-2.978-6.5213-6.619 0-0.463 0.3972-0.86 0.8607-0.86 0.4634 0 0.8607 0.397 0.8607 0.86 0 3.012 2.4827 4.898 4.7999 4.898 0.4635 0 0.8607 0.398 0.8607 0.861 0 0.496-0.3972 0.86-0.8607 0.86z"/>
   <path d="m37.441 138.17c-0.4634 0-0.8606-0.397-0.8606-0.86s0.3972-0.861 0.8606-0.861c2.88 0 4.0717-2.018 4.138-2.085 0.2317-0.397 0.7613-0.562 1.1586-0.331 0.3972 0.232 0.5627 0.762 0.331 1.159-0.0662 0.132-1.6883 2.978-5.6276 2.978z"/>
   <path d="m23.868 130.76c-0.4634 0-0.8607 0.397-0.8607 0.861v5.527c0 0.463 0.3973 0.86 0.8607 0.86s0.8607-0.397 0.8607-0.86v-5.527c0-0.497-0.3973-0.861-0.8607-0.861z"/>
   <path d="m30.126 125.49c-0.9269-0.463-1.9531-0.628-2.9793-0.496-1.8869 0.265-3.509 1.622-4.1048 3.442-0.1655 0.496 0.1655 1.125 0.8276 1.125 0.3641 0 0.6951-0.231 0.8275-0.595 0.3973-1.225 1.4235-2.086 2.7145-2.251 0.6621-0.099 1.3573 0.033 1.9531 0.331 0.4304 0.232 0.96 0.033 1.1586-0.364 0.1986-0.43 0.0331-0.96-0.3972-1.192z"/>
   <path d="m60.416 132.28c0.4965 0 0.7944 0.231 0.8937 0.628 0.5959 2.085 2.5159 3.542 4.6676 3.542 0.4635 0 0.8607 0.397 0.8607 0.86 0 0.464-0.3972 0.861-0.8607 0.861-2.9131 0-5.5283-1.953-6.3227-4.799-0.1324-0.464 0.2317-1.092 0.7614-1.092z"/>
   <path d="m71.505 132.28c0.6952 0 0.96 0.628 0.8276 1.092-0.7944 2.813-3.4096 4.799-6.3227 4.799-0.4635 0-0.8607-0.397-0.8607-0.861 0-0.463 0.3972-0.86 0.8607-0.86 2.1517 0 4.0717-1.457 4.6676-3.542 0.0993-0.397 0.4303-0.628 0.8275-0.628z"/>
   <path d="m98.32 130.86c-0.4966 0-0.7945-0.232-0.8938-0.629-0.5959-2.085-2.5159-3.541-4.6676-3.541-0.4634 0-0.8607-0.397-0.8607-0.861 0-0.463 0.3973-0.86 0.8607-0.86 2.9131 0 5.5283 1.953 6.3227 4.799 0.1325 0.43-0.2317 1.092-0.7613 1.092z"/>
   <path d="m87.228 130.86c-0.6952 0-0.96-0.629-0.8276-1.092 0.7945-2.813 3.4096-4.799 6.3227-4.799 0.4635 0 0.8607 0.397 0.8607 0.86 0 0.464-0.3972 0.861-0.8607 0.861-2.1517 0-4.0717 1.456-4.6675 3.541-0.0993 0.364-0.4304 0.629-0.8276 0.629z"/>
   <path d="m87.164 132.28c0.4965 0 0.7945 0.231 0.8938 0.628 0.5958 2.085 2.5158 3.542 4.6675 3.542 0.4635 0 0.8607 0.397 0.8607 0.86 0 0.464-0.3972 0.861-0.8607 0.861-2.9131 0-5.5282-1.953-6.3227-4.799-0.1324-0.464 0.2317-1.092 0.7614-1.092z"/>
   <path d="m98.218 132.28c0.6952 0 0.96 0.628 0.8276 1.092-0.7945 2.813-3.4096 4.799-6.3227 4.799-0.4635 0-0.8607-0.397-0.8607-0.861 0-0.463 0.3972-0.86 0.8607-0.86 2.1517 0 4.0717-1.457 4.6675-3.542 0.1324-0.397 0.4635-0.628 0.8276-0.628z"/>
  </g>
  <path d="m101.18 0h-45.335v32.884h45.335c0.524 0 1.043-0.1032 1.527-0.3038 0.485-0.2006 0.925-0.4946 1.295-0.8652 0.371-0.3706 0.665-0.8106 0.865-1.2948 0.201-0.4842 0.304-1.0032 0.304-1.5274v-24.902c0-1.0585-0.42-2.0737-1.169-2.8222-0.748-0.74849-1.763-1.169-2.822-1.169z" fill="#ff86dd"/>
  <path d="m26.991 98.695h24.858c0.5242 0 1.0432-0.1033 1.5274-0.3038 0.4842-0.2006 0.9242-0.4946 1.2948-0.8652 0.3707-0.3706 0.6647-0.8106 0.8652-1.2949 0.2006-0.4842 0.3038-1.0032 0.3038-1.5273v-61.82h-32.84v61.82c0 1.0585 0.4205 2.0737 1.169 2.8222s1.7637 1.169 2.8222 1.169z" fill="#611aba"/>
  <path d="m55.887 0c-8.7138 0.011496-17.067 3.4811-23.224 9.6468-6.1575 6.1657-9.6161 14.523-9.6161 23.237v10.412s0.6073-10.412 9.6309-10.412h23.21v-22.125c0.0245-0.3611 0.0245-0.7235 0-1.0846 0-9.0236 10.412-9.6743 10.412-9.6743z" fill="#fbfbfb"/>
 </g>
</svg>
