<svg width="63" height="63" viewBox="0 0 63 63" fill="none" xmlns="http://www.w3.org/2000/svg">
<path d="M37.4211 25.8945C39.5149 25.8945 41.523 26.7263 43.0035 28.2068C44.4841 29.6874 45.3158 31.6955 45.3158 33.7893V42.9998H40.0527V33.7893C40.0527 33.0913 39.7754 32.422 39.2819 31.9285C38.7884 31.4349 38.119 31.1577 37.4211 31.1577C36.7232 31.1577 36.0538 31.4349 35.5603 31.9285C35.0668 32.422 34.7895 33.0913 34.7895 33.7893V42.9998H29.5264V33.7893C29.5264 31.6955 30.3581 29.6874 31.8387 28.2068C33.3192 26.7263 35.3273 25.8945 37.4211 25.8945V25.8945Z" stroke="#00B9EB" stroke-width="2.63158" stroke-linecap="round" stroke-linejoin="round"/>
<path d="M24.2632 27.2104H19V42.9999H24.2632V27.2104Z" stroke="#00B9EB" stroke-width="2.63158" stroke-linecap="round" stroke-linejoin="round"/>
<path d="M21.6316 23.2632C23.085 23.2632 24.2632 22.085 24.2632 20.6316C24.2632 19.1782 23.085 18 21.6316 18C20.1782 18 19 19.1782 19 20.6316C19 22.085 20.1782 23.2632 21.6316 23.2632Z" stroke="#00B9EB" stroke-width="2.63158" stroke-linecap="round" stroke-linejoin="round"/>
</svg>
