<svg width="63" height="63" viewBox="0 0 63 63" fill="none" xmlns="http://www.w3.org/2000/svg">
<path d="M38.5 18H25.5C21.9101 18 19 20.9101 19 24.5V37.5C19 41.0898 21.9101 44 25.5 44H38.5C42.0898 44 45 41.0898 45 37.5V24.5C45 20.9101 42.0898 18 38.5 18Z" stroke="#00B9EB" stroke-width="2.6" stroke-linecap="round" stroke-linejoin="round"/>
<path d="M37.1992 30.1809C37.3597 31.2628 37.1749 32.3678 36.6711 33.3386C36.1674 34.3095 35.3703 35.0967 34.3933 35.5885C33.4164 36.0802 32.3092 36.2514 31.2294 36.0776C30.1495 35.9039 29.1519 35.394 28.3785 34.6206C27.6051 33.8472 27.0953 32.8496 26.9215 31.7698C26.7478 30.6899 26.9189 29.5828 27.4107 28.6058C27.9024 27.6288 28.6897 26.8318 29.6605 26.328C30.6313 25.8243 31.7363 25.6395 32.8182 25.7999C33.9218 25.9636 34.9435 26.4778 35.7324 27.2667C36.5213 28.0556 37.0356 29.0773 37.1992 30.1809Z" stroke="#00B9EB" stroke-width="2.6" stroke-linecap="round" stroke-linejoin="round"/>
<path d="M39.1504 23.8501H39.1634" stroke="#00B9EB" stroke-width="2.6" stroke-linecap="round" stroke-linejoin="round"/>
</svg>
