<svg width="63" height="63" viewBox="0 0 63 63" fill="none" xmlns="http://www.w3.org/2000/svg">
<path d="M46.9004 24.3592C46.7355 23.7004 46.3997 23.0968 45.9269 22.6094C45.4541 22.1219 44.861 21.7679 44.2075 21.583C41.82 21 32.2699 21 32.2699 21C32.2699 21 22.7198 21 20.3322 21.6385C19.6788 21.8234 19.0857 22.1774 18.6129 22.6649C18.14 23.1523 17.8042 23.7559 17.6393 24.4147C17.2024 26.8377 16.9886 29.2957 17.0008 31.7578C16.9852 34.2384 17.199 36.7151 17.6393 39.1563C17.8211 39.7946 18.1644 40.3753 18.6362 40.8421C19.1079 41.309 19.6921 41.6463 20.3322 41.8215C22.7198 42.46 32.2699 42.46 32.2699 42.46C32.2699 42.46 41.82 42.46 44.2075 41.8215C44.861 41.6366 45.4541 41.2826 45.9269 40.7951C46.3997 40.3077 46.7355 39.7041 46.9004 39.0453C47.334 36.6405 47.5477 34.2013 47.539 31.7578C47.5545 29.2772 47.3408 26.8004 46.9004 24.3592V24.3592Z" stroke="#FF7882" stroke-width="2.7762" stroke-linecap="round" stroke-linejoin="round"/>
<path d="M29.1465 36.2969L37.128 31.7578L29.1465 27.2188V36.2969Z" stroke="#FF7882" stroke-width="2.7762" stroke-linecap="round" stroke-linejoin="round"/>
</svg>
