<svg width="66" height="41" viewBox="0 0 66 41" fill="none" xmlns="http://www.w3.org/2000/svg">
<g clip-path="url(#clip0)">
<path fill-rule="evenodd" clip-rule="evenodd" d="M24.8503 41H65.8503V0H24.8503V41Z" fill="black"/>
<path fill-rule="evenodd" clip-rule="evenodd" d="M16.6504 41H23.0932V0H16.6504V41Z" fill="black"/>
<path fill-rule="evenodd" clip-rule="evenodd" d="M9.03613 41H11.9647V0H9.03613V41Z" fill="black"/>
<path fill-rule="evenodd" clip-rule="evenodd" d="M0.835938 41H2.59308V0H0.835938V41Z" fill="black"/>
<path fill-rule="evenodd" clip-rule="evenodd" d="M34.4592 7.40344H35.2049V11.8613C35.2049 12.3615 35.1773 12.9215 34.8177 13.3098C34.6414 13.4949 34.4253 13.6138 34.1705 13.6641C34.1576 13.6536 33.4788 12.9724 33.4788 12.9724C33.6802 12.9701 33.8911 12.9853 34.082 12.9068C34.2156 12.8553 34.3099 12.7639 34.3649 12.6333C34.4341 12.5033 34.4592 12.2034 34.4592 11.7758V7.40344Z" fill="white"/>
<path fill-rule="evenodd" clip-rule="evenodd" d="M40.2097 8.03906C39.6135 8.03906 39.1238 8.22532 38.7402 8.59842C38.3565 8.97152 38.1644 9.4477 38.1644 10.027C38.1644 10.5893 38.3571 11.0561 38.7419 11.4292C39.1267 11.8023 39.6094 11.9885 40.1875 11.9885C40.7691 11.9885 41.2535 11.7982 41.6424 11.418C42.0313 11.0379 42.2257 10.5641 42.2257 9.9971C42.2257 9.44478 42.0313 8.98089 41.6424 8.60428C41.2535 8.22766 40.7767 8.03906 40.2097 8.03906ZM40.1798 7.33093C40.9852 7.33093 41.6558 7.58572 42.1912 8.09529C42.7265 8.60486 42.9942 9.24388 42.9942 10.0123C42.9942 10.7802 42.7236 11.4163 42.1836 11.9194C41.643 12.4231 40.9618 12.675 40.1394 12.675C39.354 12.675 38.6997 12.4231 38.1767 11.9194C37.6542 11.4163 37.3918 10.7855 37.3918 10.027C37.3918 9.24856 37.656 8.60486 38.1826 8.09529C38.7091 7.58572 39.3751 7.33093 40.1798 7.33093Z" fill="white"/>
<path fill-rule="evenodd" clip-rule="evenodd" d="M48.9719 7.40417H49.7175V12.6141H48.9719V10.3468H45.9244V12.6141H45.1782V7.40417H45.9244V9.67265H48.9719V7.40417Z" fill="white"/>
<path fill-rule="evenodd" clip-rule="evenodd" d="M56.6478 7.40417H57.3565V12.6141H56.7146L53.0738 8.60137V12.6141H52.3733V7.40417H52.9772L56.6478 11.4509V7.40417Z" fill="white"/>
<path fill-rule="evenodd" clip-rule="evenodd" d="M31.4026 18.5814V23.8206H34.6129V23.1447H32.1546V18.5814H31.4026Z" fill="white"/>
<path fill-rule="evenodd" clip-rule="evenodd" d="M37.125 18.5814V23.8206H40.5052V23.1447H37.8771V21.5158H40.3587V20.8399H37.8771V19.2573H40.436V18.5814H37.125Z" fill="white"/>
<path fill-rule="evenodd" clip-rule="evenodd" d="M49.9082 18.5814L48.4785 22.1923L47.0183 18.5814H46.3049L44.8535 22.1923L43.4086 18.5814H42.6565L44.7762 23.8669H44.922L46.6581 19.5801L48.3801 23.8669H48.5259L50.6527 18.5814H49.9082Z" fill="white"/>
<path fill-rule="evenodd" clip-rule="evenodd" d="M52.9214 23.8204H53.6746V18.5818H52.9214V23.8204Z" fill="white"/>
<path fill-rule="evenodd" clip-rule="evenodd" d="M57.913 21.638L57.3425 21.2919C56.9852 21.0734 56.7591 20.8555 56.5969 20.6529C56.4276 20.4432 56.3433 20.1855 56.3433 19.9102C56.3433 19.4978 56.4862 19.1622 56.7726 18.9051C57.059 18.648 57.4403 18.5232 57.8983 18.5232C58.3804 18.5232 58.7365 18.6462 59.1014 18.8916V19.7432C58.7242 19.3801 58.3177 19.1979 57.8825 19.1979C57.6377 19.1979 57.4368 19.2548 57.2792 19.3684C57.1217 19.4814 57.0432 19.6302 57.0432 19.8071C57.0432 19.9641 57.0813 20.0941 57.1966 20.2311C57.3132 20.3682 57.5194 20.5281 57.7771 20.6792L58.371 21.0178C59.01 21.3996 59.3081 21.8852 59.3081 22.475C59.3081 22.8956 59.1629 23.2417 58.8812 23.5035C58.6 23.7659 58.2392 23.9065 57.7894 23.8983C57.2728 23.8883 56.8101 23.7448 56.3755 23.4157V22.4633C56.7802 22.9764 57.2494 23.2218 57.7812 23.2218C58.0166 23.2218 58.2123 23.1673 58.3681 23.0367C58.5245 22.9061 58.6094 22.7421 58.6094 22.5453C58.6094 22.2261 58.3728 21.9239 57.913 21.638Z" fill="white"/>
<path fill-rule="evenodd" clip-rule="evenodd" d="M31.9334 30.2096C31.9334 30.2717 31.958 30.3437 32.0083 30.4257C32.0587 30.5077 32.1161 30.5786 32.1829 30.6378C32.2819 30.5774 32.3603 30.5154 32.4183 30.4533C32.4769 30.3912 32.5062 30.318 32.5062 30.2342C32.5062 30.1569 32.4792 30.0925 32.4248 30.0409C32.3703 29.9894 32.3006 29.9636 32.2151 29.9636C32.1401 29.9636 32.0733 29.9865 32.0177 30.0327C31.9615 30.0784 31.9334 30.1376 31.9334 30.2096ZM31.6001 31.6739C31.6001 31.7647 31.6346 31.8414 31.7043 31.9041C31.7746 31.9662 31.8572 31.9972 31.9533 31.9972C32.1161 31.9972 32.2877 31.9187 32.4693 31.7612L31.982 31.2153C31.8625 31.2908 31.7694 31.3652 31.7014 31.4379C31.6335 31.5099 31.6001 31.5884 31.6001 31.6739ZM32.2233 29.5513C32.44 29.5513 32.621 29.6122 32.7651 29.7352C32.9092 29.8576 32.9812 30.0146 32.9812 30.2055C32.9812 30.3437 32.9384 30.472 32.8523 30.5909C32.7662 30.7104 32.6345 30.8287 32.4576 30.9447L32.8477 31.3957C32.9625 31.2809 33.0679 31.1304 33.1645 30.9447H33.68C33.5447 31.2703 33.3713 31.5368 33.1604 31.7454L33.7309 32.3896H33.0216L32.7598 32.0909C32.6163 32.2098 32.4781 32.2959 32.3445 32.3475C32.211 32.3996 32.0517 32.426 31.866 32.426C31.637 32.426 31.4443 32.3568 31.2867 32.2186C31.1298 32.0804 31.0513 31.9111 31.0513 31.7108C31.0513 31.5439 31.1081 31.3945 31.2211 31.2627C31.3342 31.1304 31.4952 31.0085 31.7032 30.8961C31.6042 30.7719 31.5321 30.6589 31.4859 30.5581C31.4402 30.4574 31.4168 30.3543 31.4168 30.25C31.4168 30.0433 31.4923 29.8752 31.644 29.7451C31.7951 29.6157 31.9878 29.5513 32.2233 29.5513Z" fill="white"/>
<path fill-rule="evenodd" clip-rule="evenodd" d="M36.6013 30.7701C36.7477 30.7701 36.8614 30.7362 36.9439 30.6694C37.0259 30.6026 37.0669 30.5036 37.0669 30.3719C37.0669 30.1106 36.8988 29.98 36.5632 29.98H36.189V30.7701H36.6013ZM36.7372 29.5513C37.0031 29.5513 37.2186 29.6286 37.3844 29.782C37.5502 29.9355 37.6333 30.1335 37.6333 30.376C37.6333 30.6214 37.5496 30.8193 37.3815 30.9716C37.2134 31.1233 36.992 31.1983 36.7173 31.1983H36.189V32.3896H35.6401V29.5513H36.7372Z" fill="white"/>
<path fill-rule="evenodd" clip-rule="evenodd" d="M39.0209 31.2821H39.937L39.4578 30.1587L39.0209 31.2821ZM39.7366 29.5513L40.9895 32.3896H40.4108L40.1162 31.6985H38.8546L38.5804 32.3896H38.0059L39.1755 29.5513H39.7366Z" fill="white"/>
<path fill-rule="evenodd" clip-rule="evenodd" d="M42.6195 30.7621C42.7636 30.7621 42.876 30.7257 42.958 30.6543C43.04 30.5822 43.081 30.4844 43.081 30.3597C43.081 30.2296 43.0406 30.1324 42.9592 30.068C42.8778 30.0041 42.7618 29.9713 42.6119 29.9713H42.2704V30.7621H42.6195ZM42.7437 29.5514C43.0107 29.5514 43.228 29.6252 43.3956 29.7728C43.5637 29.9204 43.6474 30.1131 43.6474 30.3497C43.6474 30.5108 43.6064 30.6514 43.5227 30.7714C43.4395 30.8909 43.3159 30.9852 43.1519 31.0543C43.2427 31.1029 43.3235 31.1697 43.3938 31.2535C43.4641 31.3372 43.5519 31.4796 43.6562 31.6781C43.829 32.0219 43.9578 32.2591 44.0422 32.3892H43.4307C43.3879 32.3271 43.3317 32.2275 43.2597 32.091C43.1027 31.7888 42.9873 31.585 42.9141 31.4801C42.8415 31.3753 42.7712 31.3009 42.7032 31.257C42.6353 31.2131 42.558 31.1902 42.4695 31.1902H42.2704V32.3892H41.7222V29.5514H42.7437Z" fill="white"/>
<path fill-rule="evenodd" clip-rule="evenodd" d="M47.0368 29.5513V29.98H46.0288V32.3896H45.4806V29.98H44.4731V29.5513H47.0368Z" fill="white"/>
<path fill-rule="evenodd" clip-rule="evenodd" d="M48.4165 29.5513L50.1028 31.5322V29.5513H50.6387V32.3896H50.1672L48.4716 30.376V32.3896H47.9351V29.5513H48.4165Z" fill="white"/>
<path fill-rule="evenodd" clip-rule="evenodd" d="M53.6216 29.5513V29.98H52.3359V30.7256H53.5665V31.1538H52.3359V31.9603H53.6503V32.3896H51.7871V29.5513H53.6216Z" fill="white"/>
<path fill-rule="evenodd" clip-rule="evenodd" d="M55.6062 30.7621C55.7497 30.7621 55.8621 30.7257 55.9441 30.6543C56.0261 30.5822 56.0671 30.4844 56.0671 30.3597C56.0671 30.2296 56.0267 30.1324 55.9453 30.068C55.8639 30.0041 55.7479 29.9713 55.598 29.9713H55.2565V30.7621H55.6062ZM55.7297 29.5514C55.9968 29.5514 56.2141 29.6252 56.3822 29.7728C56.5497 29.9204 56.6341 30.1131 56.6341 30.3497C56.6341 30.5108 56.5925 30.6514 56.5087 30.7714C56.4256 30.8909 56.302 30.9852 56.138 31.0543C56.2288 31.1029 56.3096 31.1697 56.3799 31.2535C56.4502 31.3372 56.538 31.4796 56.6423 31.6781C56.8151 32.0219 56.9439 32.2591 57.0283 32.3892H56.4168C56.3746 32.3271 56.3178 32.2275 56.2458 32.091C56.0888 31.7888 55.974 31.585 55.9008 31.4801C55.8276 31.3753 55.7573 31.3009 55.6893 31.257C55.6214 31.2131 55.5441 31.1902 55.4556 31.1902H55.2565V32.3892H54.7083V29.5514H55.7297Z" fill="white"/>
<path fill-rule="evenodd" clip-rule="evenodd" d="M58.6743 29.5146C58.9508 29.5146 59.2167 29.5838 59.4721 29.722V30.2099C59.1786 30.0324 58.918 29.9434 58.6902 29.9434C58.5525 29.9434 58.4442 29.9697 58.3668 30.0236C58.2889 30.0775 58.2497 30.1484 58.2497 30.238C58.2497 30.3452 58.3217 30.4442 58.467 30.5344C58.508 30.5619 58.6638 30.6375 58.9362 30.7622C59.1693 30.8717 59.3374 30.9936 59.4405 31.1277C59.543 31.2618 59.5945 31.4229 59.5945 31.6109C59.5945 31.8552 59.5066 32.0514 59.3315 32.2013C59.1558 32.3513 58.9291 32.4262 58.6497 32.4262C58.4682 32.4262 58.3124 32.4063 58.1812 32.3659C58.0511 32.3261 57.9047 32.2575 57.7419 32.1597V31.6197C58.0453 31.871 58.3311 31.9969 58.5988 31.9969C58.7335 31.9969 58.8413 31.9676 58.9244 31.9096C59.0064 31.8516 59.048 31.7743 59.048 31.6783C59.048 31.5471 58.9766 31.4399 58.8331 31.3573C58.7136 31.2923 58.5601 31.2144 58.3715 31.1236C58.1484 31.0217 57.9809 30.9034 57.8707 30.7681C57.76 30.6328 57.7056 30.4758 57.7056 30.2972C57.7056 30.0588 57.794 29.8684 57.9715 29.7267C58.149 29.5855 58.3832 29.5146 58.6743 29.5146Z" fill="white"/>
</g>
<defs>
<clipPath id="clip0">
<rect width="65.0143" height="41" fill="white" transform="translate(0.835938)"/>
</clipPath>
</defs>
</svg>
