<svg width="112" height="30" viewBox="0 0 112 30" fill="none" xmlns="http://www.w3.org/2000/svg">
<path d="M92.8604 0V29.2308H111.709V24.5913H97.1997V16.9329H109.615V12.3719H97.1997V4.71352H111.709V0H92.8604Z" fill="black"/>
<path d="M74.3905 24.5129H69.1538V4.71352H74.3905C79.5513 4.71352 83.739 9.20051 83.739 14.611C83.739 20.1043 79.5513 24.5129 74.3905 24.5129ZM74.2388 0H64.8145V29.2308H74.2388C82.0159 29.2308 88.1499 22.7355 88.1499 14.6154C88.1499 6.5693 82.0159 0 74.2388 0Z" fill="black"/>
<path d="M45.5234 0L33.7061 29.2308H38.492L40.4383 24.2036H53.4479L55.3943 29.2308H60.1043L48.3629 0H45.5234ZM46.9431 8.27261L51.3541 19.5641H42.4563L46.9431 8.27261Z" fill="black"/>
<path d="M25.5542 0L14.7859 12.6028L4.08928 0H0.575684V29.2308H4.98663V8.1942L14.7859 19.6382L24.6569 8.1942V29.2308H28.9962V0H25.5542Z" fill="black"/>
</svg>
