<svg width="144" height="30" viewBox="0 0 144 30" fill="none" xmlns="http://www.w3.org/2000/svg">
<path d="M52.4603 22.359C48.3935 22.359 45.3186 19.3846 45.3186 14.6665C45.3186 9.94851 48.4927 6.87151 52.51 6.87151C56.5767 6.87151 59.6514 9.89713 59.6514 14.5638C59.6514 19.282 56.527 22.359 52.4603 22.359ZM87.0772 12.0513C85.5397 12.5642 84.7462 13.1794 84.7462 14.5128C84.7462 16.2564 85.8869 16.7179 87.5733 17.0256C88.9618 17.282 91.144 17.6924 91.144 19.9486C91.144 21.7952 89.4578 22.4618 87.7714 22.4618H78.8444C78.398 22.4618 78.1006 22.154 78.1006 21.6924V7.53834C78.1006 7.07681 78.3983 6.76921 78.8444 6.76921H86.2837C88.1682 6.76921 89.7058 7.38465 89.7058 9.28214C89.7058 10.9743 88.3666 11.6409 87.0772 12.0513ZM71.0086 4.10258V25.1282C71.0086 27.5897 72.3476 28.9743 74.7282 28.9743H87.7219C94.318 28.9743 98.0873 25.9487 98.0873 20.7691C98.0873 17.5898 96.7977 15.3334 93.9214 13.8974C95.7564 12.4614 96.6491 10.4614 96.6491 8.05125C96.6491 3.17953 93.2767 0.256454 86.8794 0.256454H74.7282C72.3474 0.256454 71.0086 1.64103 71.0086 4.10258ZM3.75858 29.2308C5.89111 29.2308 7.37898 27.6923 7.37898 25.4358V9.99989L15.2148 14.8205C15.5619 15.0255 16.1571 15.3845 17.0498 15.3845C17.8433 15.3845 18.5377 14.9744 18.7857 14.8205L26.7208 9.89713V25.2819C26.7208 28.051 28.5062 29.2305 30.3412 29.2305C32.4738 29.2305 33.9616 27.6409 33.9616 25.4356V3.79475C33.9616 1.33343 32.4241 0.205072 30.4899 0.205072C29.8452 0.205072 29.25 0.35899 28.655 0.717981L17.5458 7.38465C17.2978 7.53834 17.149 7.53834 16.9009 7.38465L5.59341 0.769135C4.99844 0.410373 4.40324 0.205072 3.70889 0.205072C1.77468 0.205072 0.138184 1.33343 0.138184 3.89751V25.2821C0.138184 27.7948 1.67552 29.2308 3.75858 29.2308ZM142.871 6.05123C143.417 5.17956 143.665 4.35904 143.665 3.53852C143.665 2.46155 143.169 1.5385 142.326 0.923053C141.631 0.410373 140.887 0.153918 140.193 0.153918C139.102 0.153918 138.061 0.717981 137.218 1.84611L129.034 12.9744C127.547 15.0258 126.505 16.7693 126.505 19.5385V25.2821C126.505 28.0513 128.29 29.2308 130.125 29.2308C132.258 29.2308 133.795 27.6411 133.795 25.4358V19.0256C133.795 18.6152 133.895 18.3074 134.143 17.9484L142.871 6.05123ZM123.678 1.84611L127.546 7.07682C128.241 8.0001 128.489 8.87177 128.489 9.64113C128.489 10.6667 127.943 11.5898 127.1 12.2564C126.455 12.7693 125.711 13.0769 125.067 13.0769C124.025 13.0769 123.033 12.4614 122.141 11.3333L118.074 6.20514C117.429 5.38463 117.131 4.56411 117.131 3.74359C117.131 2.718 117.677 1.69242 118.47 1.02559C119.115 0.461526 119.909 0.153918 120.653 0.153918C121.744 0.153918 122.835 0.717981 123.678 1.84611ZM119.512 21.8461H109.395C108.948 21.8461 108.651 21.5385 108.651 21.077V4.0512C108.651 1.28204 106.865 0.102536 105.03 0.102536C102.898 0.102536 101.36 1.69242 101.36 3.89751V25.1282C101.36 27.5897 102.699 28.9743 105.08 28.9743H119.363C122.041 28.9743 123.182 27.3333 123.182 25.4358C123.182 23.2307 121.644 21.8461 119.512 21.8461ZM52.4603 29.2308C60.6929 29.2308 67.0907 22.8717 67.0907 14.564C67.0907 6.20514 60.8418 0 52.5594 0C44.3268 0 37.8795 6.35906 37.8795 14.7179C37.8795 23.077 44.1779 29.2308 52.4603 29.2308Z" fill="#FF4600"/>
</svg>
