<svg width="92" height="35" viewBox="0 0 92 35" fill="none" xmlns="http://www.w3.org/2000/svg">
<path d="M18.1212 21.3978L13.0739 34.3148H11.749L9.47777 27.7911L9.35159 27.2692L9.16232 27.7911L6.89107 34.3148H5.56617L0.582031 21.3978H2.60092L6.0078 30.2049L6.13398 30.7267L6.26016 30.2049L8.72069 23.2897H9.79323L12.2537 30.2049L12.3799 30.7267L12.5061 30.2049L15.913 21.3978H18.1212Z" fill="#58595B"/>
<path d="M28.7836 32.3577V34.3148H20.0771V21.3978H28.6574V23.2897H22.0329V26.6168H27.2695V28.5087H22.0329V32.3577H28.7836Z" fill="#58595B"/>
<path d="M36.5436 21.3978C38.6887 21.3978 40.2029 22.7678 40.2029 24.6597C40.2029 25.9644 39.3196 27.0082 38.3732 27.2692C39.635 27.4649 40.9599 28.7696 40.9599 30.4658C40.9599 32.6839 39.5089 34.3148 36.7329 34.3148H31.6226V21.3978H36.5436ZM36.1651 26.5516C37.3638 26.5516 38.247 25.834 38.247 24.7902C38.247 23.7464 37.4269 23.0288 36.1651 23.0288H33.5784V26.4863L36.1651 26.5516ZM36.5436 32.5534C37.8685 32.5534 38.878 31.7053 38.878 30.4006C38.878 29.0958 37.8054 28.2477 36.4805 28.2477H33.5784V32.5534H36.5436Z" fill="#58595B"/>
<path d="M50.2344 25.1163C49.919 23.6811 48.7833 22.8982 47.4584 22.8982C46.0705 22.8982 45.061 23.5506 45.061 24.6597C45.061 25.8339 46.5752 26.2253 48.2155 26.7472C49.9821 27.3344 52.2533 28.052 52.2533 30.6615C52.2533 32.8795 50.3606 34.5105 47.5846 34.5105C44.9348 34.5105 43.1683 32.9448 42.6636 30.6615L44.6194 30.1396C44.8086 31.5096 45.9443 32.6838 47.7108 32.6838C49.225 32.6838 50.2344 31.8357 50.2344 30.7919C50.2344 29.2915 48.2155 28.7696 46.449 28.1825C44.9979 27.6606 43.0421 26.943 43.0421 24.7249C43.0421 22.7025 44.9348 21.1368 47.5215 21.1368C49.7928 21.1368 51.6224 22.5721 52.1271 24.5944L50.2344 25.1163Z" fill="#58595B"/>
<path d="M63.9249 21.3978V23.2897H59.8871V34.3148H57.9313V23.2897H53.8936V21.3978H63.9249Z" fill="#58595B"/>
<path d="M74.7768 32.3577V34.3148H66.0703V21.3978H74.6506V23.2897H68.0261V26.6168H73.2626V28.5087H68.0261V32.3577C67.963 32.3577 74.7768 32.3577 74.7768 32.3577Z" fill="#58595B"/>
<path d="M84.5559 34.3148L81.7799 29.683C81.6537 29.683 81.5275 29.683 81.4644 29.683H79.3825V34.3148H77.4897V21.3978H81.5906C84.5559 21.3978 86.3855 23.0288 86.3855 25.573C86.3855 27.3996 85.5022 28.7044 83.8619 29.3568L86.8902 34.38L84.5559 34.3148ZM81.7168 27.7258C83.4202 27.7258 84.2404 26.7473 84.2404 25.5078C84.2404 24.203 83.3572 23.2897 81.7168 23.2897H79.3825V27.7258H81.7168Z" fill="#58595B"/>
<path d="M10.7399 5.21899V7.11087H6.70208V18.0707H4.74628V7.11087H0.708496V5.21899H10.7399Z" fill="#58595B"/>
<path d="M21.8436 16.1788V18.0707H13.2002V5.21899H21.7805V7.11087H15.156V10.438H20.3925V12.3298H15.156V16.1788H21.8436Z" fill="#58595B"/>
<path d="M36.417 5.21899V18.136H34.4612V9.39418L34.5243 8.87228L34.272 9.39418L30.9282 14.9393H30.108L26.7642 9.39418L26.5119 8.87228L26.5749 9.39418V18.136H24.6191V5.21899H26.4488L30.3604 11.6775L30.5496 12.0689L30.7389 11.6775L34.6505 5.21899H36.417Z" fill="#58595B"/>
<path d="M43.4837 5.21899C46.4489 5.21899 48.2155 6.78469 48.2155 9.45941C48.2155 12.1341 46.4489 13.6998 43.4837 13.6998H41.3386V18.136H39.3828V5.21899H43.4837ZM43.4206 11.7427C45.1871 11.7427 46.1335 10.8946 46.1335 9.45941C46.1335 7.95896 45.124 7.17611 43.4206 7.17611H41.2755V11.808L43.4206 11.7427Z" fill="#58595B"/>
<path d="M58.9409 16.1788V18.0707H50.4868V5.21899H52.4426V16.1788C52.5057 16.1788 58.9409 16.1788 58.9409 16.1788Z" fill="#58595B"/>
<path d="M69.8554 16.1788V18.0707H61.1489V5.21899H69.7292V7.11087H63.1047V10.438H68.3412V12.3298H63.1047V16.1788H69.8554Z" fill="#58595B"/>
<path d="M76.2272 17.3531C75.0916 16.8964 74.2083 16.1788 73.5143 15.2003C72.8203 14.2217 72.5049 13.0474 72.5049 11.6122C72.5049 10.438 72.8203 9.39416 73.5143 8.48084C74.2083 7.63275 75.1547 7.04562 76.3534 6.84991V6.78467C75.3439 6.00182 74.9023 5.0885 74.9023 3.97947C74.9023 2.93567 75.2809 2.08759 76.0379 1.43522C76.795 0.782846 77.8045 0.45666 79.1294 0.45666C80.0757 0.45666 80.8328 0.652372 81.4637 1.10903C82.0946 1.56569 82.4101 2.15283 82.4101 3.00091C82.4101 3.52281 82.2839 3.97947 81.9684 4.30566C81.653 4.69708 81.2744 4.89279 80.8328 4.89279C80.5174 4.89279 80.265 4.82755 80.0757 4.63184C79.8865 4.50137 79.7603 4.30566 79.7603 4.24042C79.7603 4.24042 79.8234 4.17518 79.9495 4.04471C80.0757 3.91423 80.2019 3.78376 80.3281 3.58805C80.4543 3.39233 80.5174 3.19662 80.5174 2.93567C80.5174 2.47901 80.3281 2.08759 80.0126 1.82664C79.6972 1.56569 79.3186 1.43522 78.8139 1.43522C78.0568 1.43522 77.489 1.69617 77.0474 2.15283C76.6058 2.60949 76.4165 3.19662 76.4165 3.91423C76.4165 5.0885 76.9212 5.93658 77.8676 6.45848H78.6247C78.877 6.45848 79.0663 6.45848 79.1294 6.52372C79.1925 6.58896 79.2556 6.71943 79.2556 7.04562C79.2556 7.17609 79.1925 7.3718 79.1294 7.43704C79.0663 7.56751 78.9401 7.63275 78.8139 7.63275H77.9937C76.9843 7.69799 76.2272 8.15465 75.7225 8.87226C75.2178 9.58987 74.9654 10.438 74.9654 11.3513C74.9654 12.3951 75.2178 13.3084 75.6594 14.026C76.101 14.8088 76.795 15.396 77.6152 15.7874C78.4354 16.1788 79.3817 16.4398 80.4543 16.4398C81.5899 16.4398 82.6624 16.1788 83.6088 15.7222C84.5551 15.2003 85.3122 14.5479 85.88 13.6998C86.4479 12.8517 86.7002 11.8732 86.7002 10.7641C86.7002 9.85082 86.4479 9.00273 85.9431 8.35036C85.4384 7.63275 84.7444 7.30657 83.8612 7.30657C83.4195 7.30657 82.9779 7.43704 82.5363 7.69799C82.0946 7.95894 81.9053 8.35036 81.9053 8.80702C81.9053 9.06797 81.9684 9.26368 82.0946 9.45939C82.2208 9.65511 82.4101 9.78558 82.6624 9.78558C83.041 9.85082 83.4195 9.78558 83.6719 9.52463C83.9242 9.32892 84.0504 9.19845 84.1135 9.19845C84.1766 9.19845 84.3028 9.32892 84.429 9.52463C84.5551 9.72034 84.6182 9.98129 84.6182 10.2422C84.6182 10.6989 84.429 11.0903 84.1135 11.3513C83.7981 11.6122 83.4195 11.7427 82.9148 11.7427C82.347 11.7427 81.8423 11.4817 81.4637 11.0251C81.0852 10.5032 80.8959 9.91605 80.8959 9.13321C80.8959 7.95894 81.2114 7.11085 81.7792 6.45848C82.347 5.87135 83.041 5.41469 83.8612 5.21898C84.6813 5.02326 85.6908 4.82755 87.0157 4.63184C88.1513 4.50137 88.9715 4.37089 89.5393 4.17518C89.8547 4.04471 90.1702 3.84899 90.4226 3.65328C90.6749 3.39233 90.738 3.13139 90.738 2.87044C90.738 2.41378 90.4226 2.08759 89.8547 2.02235C89.4762 1.95712 89.0977 2.02235 88.8453 2.2833C88.5929 2.47901 88.4668 2.60949 88.4037 2.60949C88.3406 2.60949 88.2144 2.47901 88.0882 2.21806C87.962 1.95712 87.8989 1.69617 87.962 1.36998C88.0251 0.913321 88.2144 0.587135 88.5298 0.326186C88.8453 0.130474 89.2238 0 89.6024 0C89.9178 0 90.2333 0.0652372 90.4856 0.195712C90.8642 0.391423 91.1165 0.652372 91.3058 1.0438C91.4951 1.43522 91.5582 1.82664 91.5582 2.34854C91.5582 3.19662 91.3058 3.97947 90.738 4.63184C90.1702 5.28421 89.4762 5.80611 88.5929 6.1323C87.7097 6.45848 86.7002 6.65419 85.6277 6.65419C86.9526 7.82846 87.6466 9.19845 87.6466 10.7641C87.6466 12.2646 87.3311 13.5693 86.6371 14.6784C85.9431 15.7874 84.9968 16.6355 83.7981 17.2226C82.5993 17.8098 81.2744 18.1359 79.7603 18.1359C78.4985 18.0707 77.2998 17.8098 76.2272 17.3531Z" fill="#95BCB9"/>
</svg>
